<?xml version="1.0" standalone="no"?>
<!DOCTYPE svg PUBLIC "-//W3C//DTD SVG 20010904//EN"
 "http://www.w3.org/TR/2001/REC-SVG-20010904/DTD/svg10.dtd">
<svg version="1.0" xmlns="http://www.w3.org/2000/svg"
 width="1024.000000pt" height="1024.000000pt" viewBox="0 0 1024.000000 1024.000000"
 preserveAspectRatio="xMidYMid meet">
<metadata>
Created by potrace 1.16, written by Peter Selinger 2001-2019
</metadata>
<g transform="translate(0.000000,1024.000000) scale(0.100000,-0.100000)"
fill="#000000" stroke="none">
<path d="M0 5120 l0 -5120 5120 0 5120 0 0 5120 0 5120 -5120 0 -5120 0 0
-5120z m5321 3099 c45 -22 72 -56 95 -115 15 -39 15 -52 5 -100 l-13 -55 53
-77 c141 -208 280 -342 480 -465 94 -57 169 -91 325 -146 l121 -43 42 26 c73
46 154 27 191 -45 l18 -35 129 -22 c112 -18 130 -19 143 -6 24 24 -13 76 -160
225 -131 132 -262 232 -374 286 l-38 18 -20 -28 c-24 -33 -55 -35 -140 -6 -58
19 -63 20 -111 4 -28 -9 -89 -34 -137 -56 -48 -21 -96 -39 -106 -39 -27 1 -81
47 -69 59 13 11 261 117 298 126 15 4 27 12 27 19 4 116 46 174 133 183 77 9
140 -42 153 -125 6 -38 11 -43 86 -88 176 -103 386 -286 489 -425 l50 -66 69
5 c62 4 74 2 105 -19 102 -69 122 -197 47 -298 -47 -63 -143 -78 -237 -35 -22
10 -43 17 -48 16 -4 -1 -6 1 -5 5 1 5 -4 22 -11 38 -7 17 -15 44 -18 62 -5 31
-7 32 -77 43 -39 6 -93 16 -121 21 -43 9 -51 8 -60 -7 -37 -61 -78 -84 -148
-84 -61 0 -120 58 -130 128 -3 19 -7 35 -9 36 -2 2 -39 16 -83 31 -44 16 -98
36 -121 46 -22 10 -64 27 -92 38 -214 85 -449 280 -641 533 l-73 97 -35 -14
c-45 -19 -114 -19 -160 0 -19 8 -37 15 -38 15 -6 0 -154 -178 -188 -226 -54
-76 -148 -247 -190 -348 -49 -117 -92 -290 -112 -448 -8 -71 -26 -156 -39
-192 l-23 -65 46 52 c107 120 289 317 354 384 l71 73 1 84 2 85 -99 42 c-54
23 -98 44 -98 45 0 2 7 22 16 44 16 40 27 49 39 31 3 -5 22 -15 43 -22 20 -6
63 -24 95 -40 l58 -28 43 20 c67 29 125 33 166 12 l35 -18 128 79 127 78 23
-28 c35 -46 42 -38 -138 -149 -60 -37 -89 -74 -47 -61 75 23 382 37 382 18 0
-4 16 -16 34 -26 19 -10 45 -29 56 -41 l22 -23 -144 5 c-112 5 -165 2 -239
-12 -114 -21 -135 -30 -99 -43 14 -5 75 -42 135 -82 123 -82 333 -279 438
-413 66 -84 99 -137 47 -75 -18 21 -36 36 -41 32 -5 -3 -6 1 -4 8 3 7 -13 34
-36 58 -22 25 -38 37 -35 28 3 -10 0 -18 -5 -18 -6 0 -9 9 -6 20 3 10 -1 25
-9 31 -12 10 -13 9 -8 -6 4 -10 1 -21 -7 -26 -10 -6 -10 -9 -1 -9 6 0 12 -4
12 -9 0 -10 -50 -2 -67 11 -6 5 -10 18 -8 30 4 17 2 18 -13 7 -9 -7 -14 -10
-10 -5 4 5 -3 17 -15 28 -12 11 -17 17 -11 14 6 -3 11 1 11 8 0 7 -7 12 -16 9
-9 -2 -52 29 -101 73 -78 69 -206 161 -278 198 -28 14 -31 14 -53 -10 -52 -56
-148 -70 -220 -33 l-40 20 -63 -68 c-52 -56 -134 -149 -260 -290 -17 -20 -7
-17 75 18 52 22 126 49 164 59 81 23 472 90 519 90 l31 -1 -32 -29 c-18 -16
-33 -32 -33 -34 0 -3 19 -10 43 -16 87 -21 154 -43 217 -72 109 -50 124 -58
150 -79 l25 -20 -40 7 c-22 4 -41 11 -43 15 -6 14 -32 11 -32 -3 -1 -8 -6 -6
-14 5 -14 18 -42 25 -31 7 3 -5 0 -10 -8 -10 -8 0 -17 7 -21 15 -3 8 -15 15
-26 15 -12 0 -19 4 -15 9 10 17 -15 23 -103 27 -48 2 -146 6 -217 10 -329 17
-616 -95 -841 -328 -50 -51 -108 -120 -131 -153 -248 -367 -253 -848 -11
-1222 108 -166 268 -309 443 -396 265 -131 526 -151 790 -62 55 19 101 33 102
31 5 -4 -90 -44 -121 -51 -18 -4 -25 -10 -19 -16 11 -11 75 0 67 12 -7 11 7
11 24 1 7 -5 10 -16 7 -25 -5 -12 -1 -15 17 -11 13 2 6 -4 -17 -16 -44 -21
-70 -26 -60 -10 3 6 0 10 -7 10 -9 0 -9 3 2 10 13 8 12 10 -2 10 -10 0 -18 -4
-18 -9 0 -5 -14 -14 -31 -20 -27 -9 -30 -9 -19 4 11 13 8 15 -14 15 -15 0 -29
-6 -32 -14 -7 -19 -53 -37 -86 -34 -34 3 -34 5 -5 29 22 18 22 18 -58 19 -54
0 -75 -3 -65 -10 8 -5 15 -15 15 -22 0 -8 28 -17 75 -24 162 -27 166 -30 50
-38 -86 -6 -127 -3 -225 13 -140 25 -261 58 -364 101 -41 16 -76 28 -78 26 -4
-4 157 -189 273 -315 l59 -64 42 22 c70 35 157 23 217 -30 l34 -29 69 46 c37
26 91 65 118 86 67 53 239 221 295 288 l45 54 -36 -22 c-35 -21 -70 -32 -39
-12 13 9 13 10 0 10 -13 0 -13 1 0 10 8 5 11 12 7 16 -4 4 -13 2 -19 -4 -17
-17 -31 -15 -25 2 4 9 -1 16 -11 19 -14 3 -12 6 8 15 14 7 50 28 80 47 30 20
44 26 30 15 -14 -12 -35 -30 -47 -40 -12 -10 -24 -16 -27 -13 -3 4 -6 -1 -6
-9 0 -17 43 -33 75 -28 45 6 47 5 50 -28 4 -43 13 -52 31 -28 8 11 14 15 14
10 0 -5 -23 -34 -51 -63 -40 -43 -53 -51 -61 -40 -8 11 -9 11 -5 -3 3 -9 -2
-25 -11 -36 -98 -113 -244 -239 -370 -321 -45 -30 -81 -55 -79 -57 13 -13 235
-36 342 -36 116 1 127 0 100 -12 -31 -14 -72 -53 -67 -65 11 -22 -254 -19
-370 6 -70 14 -4 -41 140 -117 34 -18 62 -36 62 -40 0 -13 -41 -60 -53 -60 -6
0 -64 29 -129 65 l-118 66 -32 -17 c-48 -25 -124 -15 -185 24 -65 42 -77 68
-79 172 l-1 85 -62 65 c-35 36 -97 103 -139 150 -43 47 -122 134 -176 195
-125 138 -121 134 -111 110 44 -112 59 -169 76 -290 55 -396 175 -655 426
-923 l78 -84 33 17 c26 13 47 16 90 11 32 -4 66 -8 78 -9 16 -1 39 21 93 93
220 290 518 511 825 611 104 34 106 34 112 69 8 47 28 77 67 100 33 20 107 30
77 10 -12 -8 -9 -10 12 -10 14 0 28 6 30 12 6 17 74 -35 83 -62 8 -24 3 -24
106 -4 153 28 154 29 168 76 16 53 25 64 80 100 96 61 214 26 262 -77 41 -88
13 -189 -69 -248 -45 -33 -96 -41 -154 -25 -24 7 -30 2 -74 -60 -107 -151
-389 -385 -539 -447 -31 -14 -35 -19 -35 -53 0 -75 -69 -142 -145 -142 -81 0
-139 64 -137 151 l1 46 -122 48 c-67 26 -139 57 -161 67 l-38 20 28 29 c15 16
32 29 37 29 5 0 78 -27 162 -61 125 -50 157 -59 173 -50 12 6 29 11 40 11 20
0 39 33 87 150 28 68 49 100 43 65 -4 -22 30 -34 42 -15 4 7 12 11 18 9 6 -2
-13 -54 -44 -118 -30 -63 -51 -118 -47 -122 11 -11 201 99 288 166 73 56 278
260 309 308 16 23 17 31 6 58 -9 21 -18 28 -29 24 -8 -3 -67 -14 -129 -23
-106 -15 -115 -18 -124 -42 -20 -52 -63 -83 -134 -95 -37 -6 -46 -3 -77 24
l-35 31 -126 -44 c-318 -112 -557 -291 -775 -579 l-74 -98 13 -59 c30 -142
-49 -249 -183 -250 -88 0 -153 47 -178 130 -11 35 -17 40 -48 45 -244 40 -439
138 -621 311 -41 40 -83 86 -93 103 l-18 31 52 0 c51 0 53 -1 120 -68 125
-126 279 -212 456 -256 134 -34 147 -35 151 -13 2 11 -25 49 -75 103 -106 116
-195 235 -240 319 -110 205 -174 402 -218 670 -34 202 -89 320 -185 400 -100
82 -164 103 -461 150 -174 28 -249 48 -389 108 -241 102 -394 198 -517 323
-51 52 -100 94 -109 94 -15 0 -16 -9 -10 -74 15 -168 117 -486 157 -486 48 0
96 -31 119 -77 31 -63 37 -125 15 -159 -16 -25 -16 -25 1 -16 13 7 22 6 32 -4
15 -16 36 -9 25 9 -8 14 50 -28 64 -45 5 -7 11 -33 12 -57 3 -50 8 -51 -96 26
-61 46 -75 52 -92 44 -29 -16 -108 -13 -142 4 -64 33 -88 125 -52 199 16 35
16 36 -16 104 -50 111 -90 238 -111 361 -11 62 -20 124 -20 136 0 17 -12 29
-47 47 -85 43 -132 155 -103 243 16 47 63 101 110 125 36 19 38 21 45 87 13
129 68 323 130 462 l28 61 -22 49 c-27 63 -26 86 2 135 38 67 115 93 178 60
26 -13 34 -13 49 -2 9 7 42 31 71 54 30 22 64 46 77 53 21 11 22 10 22 -36 0
-58 -2 -61 -65 -108 -27 -21 -52 -39 -54 -42 -3 -2 -6 -24 -7 -49 -5 -80 -73
-154 -142 -154 -19 0 -33 -28 -93 -178 -32 -79 -82 -309 -77 -351 5 -43 38
-38 73 10 64 89 346 312 373 295 4 -3 14 11 21 31 80 220 222 423 426 606 50
44 92 84 93 89 6 14 -77 -2 -195 -38 -61 -19 -113 -34 -116 -34 -2 0 -1 19 4
43 4 23 8 45 9 50 0 4 12 12 28 18 43 16 240 69 260 69 9 0 31 22 49 50 35 53
63 75 119 95 34 11 38 19 87 141 l52 129 48 3 c26 2 47 -1 47 -6 0 -6 -13 -41
-29 -78 -16 -38 -39 -98 -51 -133 -20 -60 -20 -64 -3 -77 10 -7 24 -11 32 -8
19 6 53 -5 46 -17 -4 -5 -2 -9 2 -9 7 0 9 -44 3 -60 -1 -3 -2 -32 -1 -65 1
-50 -3 -68 -28 -111 -33 -57 -92 -94 -150 -94 -27 0 -34 -5 -46 -32 -12 -30
-32 -118 -49 -220 -6 -32 -11 -38 -32 -38 -14 0 -32 7 -40 15 -16 16 -13 44
22 197 15 61 18 67 35 57 13 -6 19 -6 19 1 0 5 8 10 18 10 11 1 7 6 -13 17
-16 8 -37 22 -46 30 -15 12 -23 9 -75 -35 -252 -209 -448 -531 -519 -849 -16
-68 -18 -73 -43 -73 -53 0 -54 7 -27 158 4 23 4 42 -1 42 -14 -1 -223 -190
-266 -241 -40 -47 -40 -47 -23 -79 21 -40 21 -126 1 -174 l-15 -37 37 -41 c65
-72 203 -188 286 -239 157 -96 416 -186 646 -224 142 -23 262 -44 290 -51 25
-7 25 -7 -5 25 -16 18 -100 90 -185 159 -85 70 -198 169 -250 219 -88 86 -97
92 -127 87 -18 -3 -39 -11 -47 -18 -11 -8 -76 -231 -76 -261 0 -10 -32 -5 -60
10 -34 18 -34 31 6 188 l25 97 -25 33 c-30 40 -56 108 -56 149 0 41 26 98 61
134 l29 30 -15 50 c-24 78 -45 173 -45 203 0 39 27 101 48 108 25 10 50 41 57
73 5 21 16 32 43 43 64 26 241 64 396 87 161 23 227 43 299 91 140 92 211 227
242 457 54 400 200 719 448 979 36 37 60 72 61 88 3 26 3 26 -48 20 -66 -9
-198 -51 -260 -82 -94 -48 -213 -133 -275 -198 -62 -64 -63 -65 -117 -65 -30
0 -54 4 -54 10 0 18 172 191 236 236 126 90 304 165 495 208 17 4 29 15 33 30
13 51 74 104 146 127 33 10 85 2 131 -22z m589 -209 c27 -15 43 -71 30 -105
-14 -38 -38 -54 -79 -55 -73 0 -108 83 -60 144 22 28 73 36 109 16z m-1731
-144 c34 -36 38 -87 10 -120 -59 -67 -149 -33 -149 57 0 29 6 49 18 59 39 35
91 37 121 4z m1101 -176 c49 -49 9 -150 -60 -150 -36 0 -80 38 -80 69 0 30 19
73 38 87 26 20 79 17 102 -6z m-1640 -170 c15 -10 32 -25 38 -33 10 -12 32 -9
145 19 72 19 177 39 231 45 135 15 410 6 506 -16 l76 -18 -10 -43 c-13 -53
-11 -52 -175 -24 -202 36 -419 19 -658 -51 l-71 -21 -6 -42 c-13 -82 -70 -148
-145 -165 -24 -5 -45 -12 -48 -15 -4 -3 -19 -70 -35 -149 -24 -119 -30 -175
-34 -342 -3 -110 -10 -212 -16 -227 -11 -28 -44 -46 -58 -31 -15 14 -31 219
-25 301 14 175 53 434 71 464 2 3 -12 26 -32 49 -45 55 -54 77 -54 142 0 62
23 110 72 149 60 49 165 53 228 8z m-458 -533 c18 -23 22 -56 12 -95 -7 -26
-51 -52 -87 -52 -26 0 -61 33 -71 67 -26 84 93 149 146 80z m3068 -162 c80
-21 178 -50 217 -66 l73 -29 36 25 c20 14 44 25 53 24 11 0 8 -3 -6 -9 -13 -5
-23 -14 -23 -20 0 -6 5 -8 10 -5 6 3 10 3 10 0 0 -6 -6 -13 -46 -59 -18 -20
-22 -31 -14 -36 8 -5 7 -9 -5 -14 -9 -3 -13 -11 -9 -17 5 -8 1 -8 -14 0 -11 6
-22 14 -24 19 -4 10 -196 86 -258 102 -25 7 -89 18 -143 25 -54 7 -99 15 -100
17 -1 1 -12 23 -24 47 l-23 44 73 -6 c40 -3 138 -22 217 -42z m-2990 -1150
c34 -17 44 -44 36 -91 -17 -87 -125 -81 -145 9 -9 39 -3 53 39 81 30 20 34 20
70 1z m246 -803 c17 -26 46 -73 65 -104 18 -32 60 -88 93 -125 79 -86 224
-213 245 -213 9 0 24 9 34 20 15 18 47 25 87 21 117 -15 190 -93 190 -204 0
-85 -20 -121 -88 -163 -2 -1 82 -228 103 -276 6 -16 1 -18 -34 -18 -27 0 -47
6 -61 20 -11 11 -36 73 -57 139 l-38 119 -35 6 c-43 7 -108 60 -134 109 -18
33 -25 36 -155 72 -183 51 -178 49 -183 101 -2 24 -2 44 0 44 1 0 53 -15 115
-34 123 -38 207 -53 207 -39 0 5 -38 37 -85 72 -97 71 -195 174 -268 278 -28
40 -52 71 -54 69 -2 -2 -4 -77 -5 -167 0 -120 5 -203 21 -309 31 -212 41 -242
76 -253 104 -31 150 -76 161 -159 l6 -46 72 -20 c115 -34 146 -41 253 -57 156
-23 354 -19 538 10 39 7 41 5 57 -29 10 -19 14 -37 10 -39 -4 -3 -38 -13 -77
-23 -57 -15 -107 -18 -275 -18 -212 0 -290 10 -532 71 l-68 17 -38 -37 c-65
-63 -142 -69 -228 -16 -34 21 -69 82 -58 101 4 7 3 8 -4 4 -17 -10 -16 86 2
127 7 18 28 45 46 61 l33 27 -26 107 c-53 218 -69 446 -46 677 16 167 11 156
62 139 32 -11 50 -26 73 -62z m3024 -292 c0 -5 -10 -18 -22 -30 -12 -11 -16
-20 -10 -20 7 0 21 9 32 20 11 11 22 15 25 10 4 -6 1 -10 -5 -10 -6 0 -9 -4
-6 -9 3 -5 -3 -11 -14 -14 -22 -6 -28 -37 -8 -37 7 0 2 -7 -10 -16 -55 -38
-400 -134 -485 -134 -27 0 -36 5 -40 22 -4 12 -1 25 4 29 8 5 8 9 0 13 -21 13
-2 24 56 31 142 16 309 61 419 112 30 13 54 29 54 34 0 5 2 9 5 9 3 0 5 -4 5
-10z m-3357 -224 c26 -20 38 -71 25 -106 -12 -36 -35 -50 -82 -50 -71 0 -106
105 -50 149 30 24 80 27 107 7z m2752 -1021 c28 -27 34 -88 12 -116 -16 -21
-51 -39 -76 -39 -32 0 -71 41 -78 83 -5 33 -2 42 22 68 37 38 85 40 120 4z
m-3685 -702 c25 -12 59 -33 75 -46 34 -29 30 -45 -17 -80 -25 -19 -26 -19 -64
7 -103 67 -233 51 -312 -38 -108 -123 -38 -332 121 -366 83 -17 159 2 209 52
l20 20 39 -38 39 -38 -22 -23 c-12 -13 -47 -36 -77 -51 -50 -24 -67 -27 -156
-27 -87 0 -107 3 -155 26 -71 34 -126 89 -159 158 -35 75 -37 202 -5 272 41
89 123 160 214 186 66 19 195 11 250 -14z m662 0 c62 -28 134 -96 166 -158 24
-44 27 -62 27 -145 0 -76 -4 -104 -21 -140 -29 -62 -95 -127 -162 -158 -50
-24 -70 -27 -157 -27 -82 0 -109 4 -147 22 -67 31 -142 104 -169 166 -32 71
-33 201 -3 268 41 88 115 153 210 183 68 22 194 16 256 -11z m464 -30 c15 -27
72 -121 125 -211 l98 -162 34 52 c18 29 46 76 62 103 15 28 57 98 92 158 l64
107 50 0 49 0 0 -320 0 -320 -55 0 -55 0 0 212 0 213 -23 -35 c-13 -19 -61
-99 -106 -177 -75 -130 -85 -143 -110 -143 -25 0 -36 13 -103 123 -41 67 -87
143 -102 170 -16 26 -32 47 -38 47 -7 0 -9 -55 -8 -157 2 -87 2 -179 1 -205
l-1 -48 -55 0 -55 0 0 320 0 320 55 0 54 0 27 -47z m1137 33 c95 -34 146 -107
147 -210 0 -100 -56 -175 -157 -212 -23 -8 -83 -13 -150 -14 l-113 0 0 -95 0
-96 -57 3 -58 3 -3 318 -2 317 177 0 c122 -1 190 -5 216 -14z m395 -258 l2
-268 165 0 165 0 0 -50 0 -50 -225 0 -225 0 0 320 0 321 58 -3 57 -3 3 -267z
m902 222 l0 -50 -175 0 -175 0 0 -85 0 -85 155 0 155 0 0 -45 0 -45 -155 0
-155 0 0 -90 0 -90 179 0 179 0 4 -25 c3 -14 3 -36 0 -50 l-4 -25 -239 0 -239
0 0 320 0 320 235 0 235 0 0 -50z m306 -60 c91 -129 78 -130 181 18 l64 92 65
0 65 0 -33 -47 c-18 -27 -57 -82 -88 -123 -31 -41 -66 -89 -78 -107 l-22 -31
73 -99 c40 -54 95 -129 121 -166 l48 -68 -72 3 -73 3 -72 103 c-40 57 -79 110
-86 117 -12 12 -27 -4 -99 -105 l-85 -120 -68 0 -68 0 48 68 c26 37 80 111
120 164 l73 97 -75 100 c-91 123 -145 199 -145 206 0 3 29 5 64 5 l65 0 77
-110z m919 -67 c43 -98 107 -240 142 -315 35 -75 63 -139 63 -142 0 -3 -28 -6
-62 -6 l-63 0 -30 73 -30 72 -161 3 -161 2 -33 -75 -33 -75 -58 0 c-33 0 -59
2 -59 5 0 3 37 87 81 188 45 100 106 238 136 306 30 69 56 128 59 133 3 4 33
8 67 8 l63 0 79 -177z m675 -143 l0 -320 -55 0 -55 0 0 320 0 320 55 0 55 0 0
-320z m554 196 c34 -72 55 -130 50 -137 -4 -7 -3 -10 3 -6 14 9 167 -329 157
-345 -4 -6 -3 -8 3 -5 6 4 13 0 17 -8 4 -12 -5 -15 -55 -15 l-60 0 -34 75 -34
75 -163 0 -163 0 -30 -73 -31 -72 -57 -3 c-31 -2 -57 -1 -57 2 0 18 35 74 43
69 6 -4 8 0 4 10 -3 9 20 75 54 154 34 76 67 153 75 171 8 17 19 32 25 32 6 0
17 7 25 15 14 13 14 15 0 15 -18 0 -19 2 -10 24 3 9 11 13 18 9 21 -13 34 -11
31 6 -1 9 -9 15 -18 15 -17 -2 -16 0 17 79 16 37 17 37 74 37 l58 0 58 -124z"/>
<path d="M4194 6280 c-11 -4 -67 -15 -125 -25 -214 -33 -533 -105 -551 -123
-10 -10 9 -100 48 -232 l26 -85 48 -15 48 -16 87 94 c49 52 131 130 184 174
53 44 129 107 170 141 40 34 83 70 95 79 23 19 8 23 -30 8z"/>
<path d="M4189 6122 c-31 -26 -99 -82 -150 -124 -101 -82 -220 -195 -256 -241
-20 -26 -21 -30 -7 -62 19 -46 18 -136 -2 -179 -16 -33 -16 -35 12 -75 16 -22
82 -85 147 -138 176 -146 210 -174 266 -221 28 -24 51 -41 51 -38 0 4 -11 28
-24 54 -13 26 -36 85 -50 132 -88 282 -71 613 45 869 16 35 28 65 27 67 -2 1
-28 -19 -59 -44z"/>
<path d="M2700 2551 c-78 -25 -131 -73 -155 -140 -32 -91 -13 -174 56 -242 37
-38 57 -49 103 -60 100 -22 190 13 240 94 71 115 31 268 -86 328 -44 23 -120
32 -158 20z"/>
<path d="M4230 2425 l0 -125 95 0 c107 0 150 13 183 55 26 33 29 93 6 136 -23
45 -67 59 -184 59 l-100 0 0 -125z"/>
<path d="M6875 2521 c-3 -6 -30 -68 -60 -138 l-54 -128 116 -3 c64 -1 117 -1
119 1 4 3 -103 267 -111 275 -2 2 -6 -1 -10 -7z"/>
<path d="M8154 2541 c4 -5 -4 -7 -16 -3 -14 3 -19 1 -14 -6 4 -7 2 -10 -6 -7
-8 3 -17 -8 -24 -30 -6 -19 -7 -35 -3 -35 5 0 9 -5 9 -11 0 -5 -5 -7 -12 -3
-7 4 -8 3 -4 -4 4 -6 -9 -50 -29 -97 -19 -47 -35 -87 -35 -90 0 -3 52 -5 116
-5 123 0 151 9 132 43 -5 10 -15 14 -21 11 -7 -4 -9 -4 -5 1 4 4 2 15 -5 24
-11 14 -10 14 6 2 12 -10 17 -10 17 -1 0 6 -9 14 -19 17 -29 7 -70 116 -61
159 4 18 5 35 2 38 -9 10 -34 7 -28 -3z"/>
</g>
</svg>
